<mxfile host="app.diagrams.net" agent="Mozilla/5.0 (Macintosh; Intel Mac OS X 10_15_7) AppleWebKit/537.36 (KHTML, like Gecko) Chrome/140.0.0.0 Safari/537.36" version="28.1.2">
  <diagram name="Page-1" id="N7oIrCuWwNI_fsclLT6k">
    <mxGraphModel dx="1236" dy="687" grid="1" gridSize="10" guides="1" tooltips="1" connect="1" arrows="1" fold="1" page="1" pageScale="1" pageWidth="827" pageHeight="1169" math="0" shadow="0">
      <root>
        <mxCell id="0" />
        <mxCell id="1" parent="0" />
        <mxCell id="TTPyrnQqHGNIF4u3219H-3" value="" style="sketch=0;outlineConnect=0;fontColor=#232F3E;gradientColor=none;fillColor=#232F3D;strokeColor=none;dashed=0;verticalLabelPosition=bottom;verticalAlign=top;align=center;html=1;fontSize=12;fontStyle=0;aspect=fixed;pointerEvents=1;shape=mxgraph.aws4.traditional_server;fontFamily=Excalifont;" vertex="1" parent="1">
          <mxGeometry x="380" y="271" width="45" height="78" as="geometry" />
        </mxCell>
        <mxCell id="TTPyrnQqHGNIF4u3219H-4" value="Chat Server" style="text;html=1;align=center;verticalAlign=middle;resizable=0;points=[];autosize=1;strokeColor=none;fillColor=none;fontFamily=Excalifont;" vertex="1" parent="1">
          <mxGeometry x="357.5" y="240" width="90" height="30" as="geometry" />
        </mxCell>
        <mxCell id="TTPyrnQqHGNIF4u3219H-14" style="edgeStyle=orthogonalEdgeStyle;rounded=0;orthogonalLoop=1;jettySize=auto;html=1;" edge="1" parent="1" source="TTPyrnQqHGNIF4u3219H-9" target="TTPyrnQqHGNIF4u3219H-3">
          <mxGeometry relative="1" as="geometry" />
        </mxCell>
        <mxCell id="TTPyrnQqHGNIF4u3219H-15" value="Store if user offline" style="edgeLabel;html=1;align=center;verticalAlign=middle;resizable=0;points=[];fontFamily=Excalifont;" vertex="1" connectable="0" parent="TTPyrnQqHGNIF4u3219H-14">
          <mxGeometry x="0.0768" relative="1" as="geometry">
            <mxPoint x="1" as="offset" />
          </mxGeometry>
        </mxCell>
        <mxCell id="TTPyrnQqHGNIF4u3219H-9" value="&lt;font face=&quot;Excalifont&quot;&gt;Database&lt;/font&gt;" style="strokeWidth=2;html=1;shape=mxgraph.flowchart.database;whiteSpace=wrap;" vertex="1" parent="1">
          <mxGeometry x="348.75" y="450" width="107.5" height="60" as="geometry" />
        </mxCell>
        <mxCell id="TTPyrnQqHGNIF4u3219H-12" value="&lt;span style=&quot;color: rgb(0, 0, 0); font-family: Excalifont; font-size: 11px; font-style: normal; font-variant-ligatures: normal; font-variant-caps: normal; font-weight: 400; letter-spacing: normal; orphans: 2; text-align: center; text-indent: 0px; text-transform: none; widows: 2; word-spacing: 0px; -webkit-text-stroke-width: 0px; white-space: nowrap; background-color: rgb(255, 255, 255); text-decoration-thickness: initial; text-decoration-style: initial; text-decoration-color: initial; float: none; display: inline !important;&quot;&gt;Web Socket Protocol&lt;/span&gt;" style="text;whiteSpace=wrap;html=1;" vertex="1" parent="1">
          <mxGeometry x="190" y="330" width="100" height="40" as="geometry" />
        </mxCell>
        <mxCell id="TTPyrnQqHGNIF4u3219H-13" value="&lt;span style=&quot;color: rgb(0, 0, 0); font-family: Excalifont; font-size: 11px; font-style: normal; font-variant-ligatures: normal; font-variant-caps: normal; font-weight: 400; letter-spacing: normal; orphans: 2; text-align: center; text-indent: 0px; text-transform: none; widows: 2; word-spacing: 0px; -webkit-text-stroke-width: 0px; white-space: nowrap; background-color: rgb(255, 255, 255); text-decoration-thickness: initial; text-decoration-style: initial; text-decoration-color: initial; float: none; display: inline !important;&quot;&gt;Web Socket Protocol&lt;/span&gt;" style="text;whiteSpace=wrap;html=1;" vertex="1" parent="1">
          <mxGeometry x="545" y="330" width="100" height="40" as="geometry" />
        </mxCell>
        <mxCell id="TTPyrnQqHGNIF4u3219H-17" value="1" style="shape=message;html=1;html=1;outlineConnect=0;labelPosition=center;verticalLabelPosition=bottom;align=center;verticalAlign=top;" vertex="1" parent="1">
          <mxGeometry x="210" y="240" width="30" height="20" as="geometry" />
        </mxCell>
        <mxCell id="TTPyrnQqHGNIF4u3219H-27" value="B" style="html=1;verticalLabelPosition=bottom;align=center;labelBackgroundColor=#ffffff;verticalAlign=top;strokeWidth=2;strokeColor=#0080F0;shadow=0;dashed=0;shape=mxgraph.ios7.icons.smartphone;" vertex="1" parent="1">
          <mxGeometry x="80" y="290" width="18" height="30" as="geometry" />
        </mxCell>
        <mxCell id="TTPyrnQqHGNIF4u3219H-29" value="A" style="html=1;verticalLabelPosition=bottom;align=center;labelBackgroundColor=#ffffff;verticalAlign=top;strokeWidth=2;strokeColor=#0080F0;shadow=0;dashed=0;shape=mxgraph.ios7.icons.smartphone;" vertex="1" parent="1">
          <mxGeometry x="80" y="200" width="18" height="30" as="geometry" />
        </mxCell>
        <mxCell id="TTPyrnQqHGNIF4u3219H-31" value="D" style="html=1;verticalLabelPosition=bottom;align=center;labelBackgroundColor=#ffffff;verticalAlign=top;strokeWidth=2;strokeColor=#666666;shadow=0;dashed=0;shape=mxgraph.ios7.icons.smartphone;fillColor=#f5f5f5;fontColor=#333333;" vertex="1" parent="1">
          <mxGeometry x="760" y="290" width="18" height="30" as="geometry" />
        </mxCell>
        <mxCell id="TTPyrnQqHGNIF4u3219H-32" value="C" style="html=1;verticalLabelPosition=bottom;align=center;labelBackgroundColor=#ffffff;verticalAlign=top;strokeWidth=2;strokeColor=#0080F0;shadow=0;dashed=0;shape=mxgraph.ios7.icons.smartphone;" vertex="1" parent="1">
          <mxGeometry x="760" y="200" width="18" height="30" as="geometry" />
        </mxCell>
        <mxCell id="TTPyrnQqHGNIF4u3219H-33" value="" style="endArrow=classic;html=1;rounded=0;" edge="1" parent="1">
          <mxGeometry width="50" height="50" relative="1" as="geometry">
            <mxPoint x="110" y="220" as="sourcePoint" />
            <mxPoint x="370" y="300" as="targetPoint" />
          </mxGeometry>
        </mxCell>
        <mxCell id="TTPyrnQqHGNIF4u3219H-34" value="" style="endArrow=classic;html=1;rounded=0;" edge="1" parent="1">
          <mxGeometry width="50" height="50" relative="1" as="geometry">
            <mxPoint x="110" y="300" as="sourcePoint" />
            <mxPoint x="360" y="310" as="targetPoint" />
          </mxGeometry>
        </mxCell>
        <mxCell id="TTPyrnQqHGNIF4u3219H-35" value="" style="endArrow=classic;html=1;rounded=0;" edge="1" parent="1">
          <mxGeometry width="50" height="50" relative="1" as="geometry">
            <mxPoint x="440" y="300" as="sourcePoint" />
            <mxPoint x="750" y="230" as="targetPoint" />
          </mxGeometry>
        </mxCell>
        <mxCell id="TTPyrnQqHGNIF4u3219H-36" value="" style="endArrow=classic;html=1;rounded=0;" edge="1" parent="1">
          <mxGeometry width="50" height="50" relative="1" as="geometry">
            <mxPoint x="435" y="310" as="sourcePoint" />
            <mxPoint x="750" y="300" as="targetPoint" />
          </mxGeometry>
        </mxCell>
        <mxCell id="TTPyrnQqHGNIF4u3219H-37" value="2" style="shape=message;html=1;html=1;outlineConnect=0;labelPosition=center;verticalLabelPosition=bottom;align=center;verticalAlign=top;" vertex="1" parent="1">
          <mxGeometry x="120" y="320" width="30" height="20" as="geometry" />
        </mxCell>
        <mxCell id="TTPyrnQqHGNIF4u3219H-38" value="1" style="shape=message;html=1;html=1;outlineConnect=0;labelPosition=center;verticalLabelPosition=bottom;align=center;verticalAlign=top;" vertex="1" parent="1">
          <mxGeometry x="600" y="240" width="30" height="20" as="geometry" />
        </mxCell>
        <mxCell id="TTPyrnQqHGNIF4u3219H-40" value="2" style="shape=message;html=1;html=1;outlineConnect=0;labelPosition=center;verticalLabelPosition=bottom;align=center;verticalAlign=top;" vertex="1" parent="1">
          <mxGeometry x="413" y="410" width="30" height="20" as="geometry" />
        </mxCell>
      </root>
    </mxGraphModel>
  </diagram>
</mxfile>
